<?xml version="1.0" encoding="utf-8"?>
<!-- Generator: Adobe Adobe Illustrator 24.2.0, SVG Export Plug-In . SVG Version: 6.00 Build 0)  -->
<svg version="1.1" xmlns="http://www.w3.org/2000/svg" xmlns:xlink="http://www.w3.org/1999/xlink" x="0px" y="0px"
	width="257.95px" height="172.91px" viewBox="0 0 257.95 172.91" style="enable-background:new 0 0 257.95 172.91;"
	xml:space="preserve">
<style type="text/css">
	.st0{fill:#08757A;}
	.st1{fill:#003135;}
	.st2{fill:#091C27;}
	.st3{fill:#D5D6D5;}
	.st4{fill:none;}
	.st5{fill:#FFFFFF;}
</style>
<g id="Img">
</g>
<g id="V">
	<g>
	<g>
			<g>
				<polygon class="st1" points="91.92,87.96 127.94,109.61 164,88.04 164,47.59 178.94,38.73 179.03,95.38 127.94,126.25 
					77.03,95.9 77.03,38.73 91.88,47.52                "/>
				<polygon class="st1" points="91.92,88.35 127.94,110 164,88.43 164,47.98 178.94,39.12 179.03,95.77 127.94,126.64 77.03,96.29 
					77.03,39.12 91.88,47.91                "/>
				<path class="st0" d="M77.03,38.73l14.85,8.79l36.06-21.6L164,47.59l14.94-8.86l-51-30.25C127.94,8.48,77.12,38.63,77.03,38.73z"
					/>
				<polygon class="st2" points="91.88,47.52 91.92,87.96 127.99,109.64 164,88.04 164,47.59 128.05,25.92                "/>
			</g>
	</g>
	</g>
	<polyline class="st3" points="143.66,74.81 135.82,87.69 131.57,80.16 144.24,59.05 133.94,58.89 135.09,58.46 159.22,49.27 
	143.66,74.81     "/>
	<path class="st5" d="M126.63,58.83c0,0-12.76,0.18-12.86-0.02c-0.11-0.2,19.75,33.32,19.75,33.32l-4.54,7.09L98.68,49"/>
</g>
</svg>
<svg xmlns="http://www.w3.org/2000/svg" width="215" height="48" fill="none"><path fill="#000" d="M57.588 9.6h6L73.828 38h-5.2l-2.36-6.88h-11.36L52.548 38h-5.2l10.24-28.4Zm7.16 17.16-4.16-12.16-4.16 12.16h8.32Zm23.694-2.24c-.186-1.307-.706-2.32-1.56-3.04-.853-.72-1.866-1.08-3.04-1.08-1.68 0-2.986.613-3.92 1.84-.906 1.227-1.36 2.947-1.36 5.16s.454 3.933 1.36 5.16c.934 1.227 2.24 1.84 3.92 1.84 1.254 0 2.307-.373 3.16-1.12.854-.773 1.387-1.867 1.6-3.28l5.12.24c-.186 1.68-.733 3.147-1.64 4.4-.906 1.227-2.08 2.173-3.52 2.84-1.413.667-2.986 1-4.72 1-2.08 0-3.906-.453-5.48-1.36-1.546-.907-2.76-2.2-3.64-3.88-.853-1.68-1.28-3.627-1.28-5.84 0-2.24.427-4.187 1.28-5.84.88-1.68 2.094-2.973 3.64-3.88 1.574-.907 3.4-1.36 5.48-1.36 1.68 0 3.227.32 4.64.96 1.414.64 2.56 1.56 3.44 2.76.907 1.2 1.454 2.6 1.64 4.2l-5.12.28Zm11.486-7.72.12 3.4c.534-1.227 1.307-2.173 2.32-2.84 1.04-.693 2.267-1.04 3.68-1.04 1.494 0 2.76.387 3.8 1.16 1.067.747 1.827 1.813 2.28 3.2.507-1.44 1.294-2.52 2.36-3.24 1.094-.747 2.414-1.12 3.96-1.12 1.414 0 2.64.307 3.68.92s1.84 1.52 2.4 2.72c.56 1.2.84 2.667.84 4.4V38h-4.96V25.92c0-1.813-.293-3.187-.88-4.12-.56-.96-1.413-1.44-2.56-1.44-.906 0-1.68.213-2.32.64-.64.427-1.133 1.053-1.48 1.88-.32.827-.48 1.84-.48 3.04V38h-4.56V25.92c0-1.2-.133-2.213-.4-3.04-.24-.827-.626-1.453-1.16-1.88-.506-.427-1.133-.64-1.88-.64-.906 0-1.68.227-2.32.68-.64.427-1.133 1.053-1.48 1.88-.32.827-.48 1.827-.48 3V38h-4.96V16.8h4.48Zm26.723 10.6c0-2.24.427-4.187 1.28-5.84.854-1.68 2.067-2.973 3.64-3.88 1.574-.907 3.4-1.36 5.48-1.36 1.84 0 3.494.413 4.96 1.24 1.467.827 2.64 2.08 3.52 3.76.88 1.653 1.347 3.693 1.4 6.12v1.32h-15.08c.107 1.813.614 3.227 1.52 4.24.907.987 2.134 1.48 3.68 1.48.987 0 1.88-.253 2.68-.76a4.803 4.803 0 0 0 1.84-2.2l5.08.36c-.64 2.027-1.84 3.64-3.6 4.84-1.733 1.173-3.733 1.76-6 1.76-2.08 0-3.906-.453-5.48-1.36-1.573-.907-2.786-2.2-3.64-3.88-.853-1.68-1.28-3.627-1.28-5.84Zm15.16-2.04c-.213-1.733-.76-3.013-1.64-3.84-.853-.827-1.893-1.24-3.12-1.24-1.44 0-2.6.453-3.48 1.36-.88.88-1.44 2.12-1.68 3.72h9.92ZM163.139 9.6V38h-5.04V9.6h5.04Zm8.322 7.2.24 5.88-.64-.36c.32-2.053 1.094-3.56 2.32-4.52 1.254-.987 2.787-1.48 4.6-1.48 2.32 0 4.107.733 5.36 2.2 1.254 1.44 1.88 3.387 1.88 5.84V38h-4.96V25.92c0-1.253-.12-2.28-.36-3.08-.24-.8-.64-1.413-1.2-1.84-.533-.427-1.253-.64-2.16-.64-1.44 0-2.573.48-3.4 1.44-.8.933-1.2 2.307-1.2 4.12V38h-4.96V16.8h4.48Zm30.003 7.72c-.186-1.307-.706-2.32-1.56-3.04-.853-.72-1.866-1.08-3.04-1.08-1.68 0-2.986.613-3.92 1.84-.906 1.227-1.36 2.947-1.36 5.16s.454 3.933 1.36 5.16c.934 1.227 2.24 1.84 3.92 1.84 1.254 0 2.307-.373 3.16-1.12.854-.773 1.387-1.867 1.6-3.28l5.12.24c-.186 1.68-.733 3.147-1.64 4.4-.906 1.227-2.08 2.173-3.52 2.84-1.413.667-2.986 1-4.72 1-2.08 0-3.906-.453-5.48-1.36-1.546-.907-2.76-2.2-3.64-3.88-.853-1.68-1.28-3.627-1.28-5.84 0-2.24.427-4.187 1.28-5.84.88-1.68 2.094-2.973 3.64-3.88 1.574-.907 3.4-1.36 5.48-1.36 1.68 0 3.227.32 4.64.96 1.414.64 2.56 1.56 3.44 2.76.907 1.2 1.454 2.6 1.64 4.2l-5.12.28Zm11.443 8.16V38h-5.6v-5.32h5.6Z"/><path fill="#171717" fill-rule="evenodd" d="m7.839 40.783 16.03-28.054L20 6 0 40.783h7.839Zm8.214 0H40L27.99 19.894l-4.02 7.032 3.976 6.914H20.02l-3.967 6.943Z" clip-rule="evenodd"/></svg>